<svg xmlns="http://www.w3.org/2000/svg" width="36" height="36" viewBox="0 0 36 36" fill="none"><rect x="0.5" y="0.5" width="35" height="35" rx="17.5" stroke="#E1DEDE"></rect><path d="M14.7135 23.6662C13.7009 23.6662 13.0889 23.0091 13.0456 22.0939C13.0456 21.0576 13.6696 20.1666 14.7463 19.7824C15.6051 19.4759 16.752 20.1893 18.1 20.1797C19.4462 20.1925 20.5926 19.4801 21.4515 19.7849C22.5344 20.1692 23.1604 21.059 23.1544 22.0939C23.1056 23.0091 22.4973 23.6662 21.4864 23.6662H14.7135Z" stroke="#413D45" stroke-miterlimit="10"></path><path d="M18.1052 17.7521C19.6016 17.7521 20.8147 16.5391 20.8147 15.0427C20.8147 13.5463 19.6016 12.3333 18.1052 12.3333C16.6089 12.3333 15.3958 13.5463 15.3958 15.0427C15.3958 16.5391 16.6089 17.7521 18.1052 17.7521Z" stroke="#413D45" stroke-miterlimit="10"></path></svg>