<svg xmlns="http://www.w3.org/2000/svg" width="36" height="36" viewBox="0 0 36 36" fill="none"><rect x="0.5" y="0.5" width="35" height="35" rx="17.5" stroke="#E1DEDE"></rect><path d="M11.8334 12.1665L13.22 12.4065L13.862 20.0552C13.9134 20.6798 14.4354 21.1592 15.062 21.1572H22.3347C22.9327 21.1585 23.44 20.7185 23.5247 20.1265L24.1574 15.7545C24.228 15.2658 23.8887 14.8125 23.4007 14.7418C23.358 14.7358 13.4427 14.7325 13.4427 14.7325" stroke="#413D45" stroke-linecap="round" stroke-linejoin="round"></path><path d="M19.4167 17.1965H21.2654" stroke="#413D45" stroke-linecap="round" stroke-linejoin="round"></path><path fill-rule="evenodd" clip-rule="evenodd" d="M14.7696 23.4683C14.9703 23.4683 15.1323 23.6309 15.1323 23.8309C15.1323 24.0316 14.9703 24.1943 14.7696 24.1943C14.5689 24.1943 14.4069 24.0316 14.4069 23.8309C14.4069 23.6309 14.5689 23.4683 14.7696 23.4683Z" fill="#413D45" stroke="#413D45" stroke-linecap="round" stroke-linejoin="round"></path><path fill-rule="evenodd" clip-rule="evenodd" d="M22.2898 23.4683C22.4905 23.4683 22.6531 23.6309 22.6531 23.8309C22.6531 24.0316 22.4905 24.1943 22.2898 24.1943C22.0891 24.1943 21.9271 24.0316 21.9271 23.8309C21.9271 23.6309 22.0891 23.4683 22.2898 23.4683Z" fill="#413D45" stroke="#413D45" stroke-linecap="round" stroke-linejoin="round"></path></svg>