<svg xmlns="http://www.w3.org/2000/svg" width="13" height="11" viewBox="0 0 13 11" fill="none"><path d="M9.35419 10.7917H3.52085C1.39169 10.7917 0.166687 9.56667 0.166687 7.4375V3.35417C0.166687 1.225 1.39169 0 3.52085 0H9.35419C11.4834 0 12.7084 1.225 12.7084 3.35417V7.4375C12.7084 9.56667 11.4834 10.7917 9.35419 10.7917ZM3.52085 0.875C1.85252 0.875 1.04169 1.68583 1.04169 3.35417V7.4375C1.04169 9.10583 1.85252 9.91667 3.52085 9.91667H9.35419C11.0225 9.91667 11.8334 9.10583 11.8334 7.4375V3.35417C11.8334 1.68583 11.0225 0.875 9.35419 0.875H3.52085Z" fill="white"></path><path d="M6.43693 5.90201C5.94693 5.90201 5.4511 5.75035 5.07193 5.44118L3.2461 3.98285C3.1612 3.90913 3.10803 3.80547 3.09769 3.6935C3.08735 3.58154 3.12064 3.4699 3.1906 3.38188C3.26057 3.29385 3.36182 3.23624 3.47323 3.22105C3.58465 3.20586 3.69762 3.23427 3.7886 3.30035L5.61443 4.75868C6.05777 5.11451 6.81027 5.11451 7.2536 4.75868L9.07943 3.30035C9.2661 3.14868 9.5461 3.17785 9.69193 3.37035C9.8436 3.55701 9.81443 3.83701 9.62193 3.98285L7.7961 5.44118C7.42277 5.75035 6.92693 5.90201 6.43693 5.90201Z" fill="white"></path></svg>