<svg xmlns="http://www.w3.org/2000/svg" width="38" height="38" viewBox="0 0 38 38" fill="none"><path d="M13.2683 18.9999L17.0842 22.8315L24.7317 15.1682" stroke="#262626" stroke-width="1.5" stroke-linecap="round" stroke-linejoin="round"></path><path d="M17.0208 3.87909C18.1133 2.94493 19.9025 2.94493 21.0108 3.87909L23.5125 6.03243C23.9875 6.44409 24.8742 6.77659 25.5075 6.77659H28.1992C29.8775 6.77659 31.255 8.15409 31.255 9.83243V12.5241C31.255 13.1416 31.5875 14.0441 31.9992 14.5191L34.1525 17.0208C35.0867 18.1133 35.0867 19.9024 34.1525 21.0108L31.9992 23.5124C31.5875 23.9874 31.255 24.8741 31.255 25.5074V28.1991C31.255 29.8774 29.8775 31.2549 28.1992 31.2549H25.5075C24.89 31.2549 23.9875 31.5874 23.5125 31.9991L21.0108 34.1524C19.9183 35.0866 18.1292 35.0866 17.0208 34.1524L14.5192 31.9991C14.0442 31.5874 13.1575 31.2549 12.5242 31.2549H9.785C8.10667 31.2549 6.72917 29.8774 6.72917 28.1991V25.4916C6.72917 24.8741 6.39667 23.9874 6.00083 23.5124L3.86333 20.9949C2.945 19.9024 2.945 18.1291 3.86333 17.0366L6.00083 14.5191C6.39667 14.0441 6.72917 13.1574 6.72917 12.5399V9.81659C6.72917 8.13826 8.10667 6.76076 9.785 6.76076H12.5242C13.1417 6.76076 14.0442 6.42826 14.5192 6.01659L17.0208 3.87909Z" stroke="#262626" stroke-width="1.5" stroke-linecap="round" stroke-linejoin="round"></path></svg>