<svg xmlns="http://www.w3.org/2000/svg" width="38" height="38" viewBox="0 0 38 38" fill="none"><path d="M31.6666 12.8417C31.6666 6.3017 25.9955 1 18.9999 1C12.0043 1 6.33325 6.3017 6.33325 12.8417" stroke="#262626" stroke-width="1.5"></path><path d="M32.3333 12.8417H27.4166C27.1405 12.8417 26.9166 13.0655 26.9166 13.3417V25.875C26.9166 26.1511 27.1405 26.375 27.4166 26.375H32.3333C33.714 26.375 34.8333 25.2557 34.8333 23.875V15.3417C34.8333 13.961 33.714 12.8417 32.3333 12.8417Z" stroke="#262626" stroke-width="1.5"></path><path d="M32 26V31C32 32.1046 31.1046 33 30 33H24" stroke="#262626" stroke-width="1.5"></path><path d="M15 30H23C23.5523 30 24 30.4477 24 31V34C24 34.5523 23.5523 35 23 35H15C14.4477 35 14 34.5523 14 34V31C14 30.4477 14.4477 30 15 30Z" stroke="#262626" stroke-width="1.5"></path><path d="M10.5833 12.8417H5.66663C4.28591 12.8417 3.16663 13.961 3.16663 15.3417V23.875C3.16663 25.2557 4.28591 26.375 5.66663 26.375H10.5833C10.8594 26.375 11.0833 26.1511 11.0833 25.875V13.3417C11.0833 13.0655 10.8594 12.8417 10.5833 12.8417Z" stroke="#262626" stroke-width="1.5"></path></svg>