<svg xmlns="http://www.w3.org/2000/svg" width="13" height="14" viewBox="0 0 13 14" fill="none"><path d="M6.16279 8.26526C4.80028 8.26526 3.68724 7.15862 3.68724 5.78971C3.68724 4.4208 4.80028 3.32056 6.16279 3.32056C7.5253 3.32056 8.63834 4.4272 8.63834 5.79611C8.63834 7.16502 7.5253 8.26526 6.16279 8.26526ZM6.16279 4.28007C5.33121 4.28007 4.64676 4.95813 4.64676 5.79611C4.64676 6.63408 5.32481 7.31214 6.16279 7.31214C7.00077 7.31214 7.67883 6.63408 7.67883 5.79611C7.67883 4.95813 6.99437 4.28007 6.16279 4.28007Z" fill="white"></path><path d="M6.16471 13.7595C5.17924 13.7576 4.23265 13.3748 3.52284 12.6912C1.6358 10.8745 -0.449552 7.97677 0.337251 4.52891C1.04729 1.40089 3.77871 0 6.16471 0H6.17111C8.5571 0 11.2885 1.40089 11.9986 4.53531C12.779 7.98317 10.6936 10.8745 8.80658 12.6912C8.09678 13.3748 7.15018 13.7576 6.16471 13.7595ZM6.16471 0.959516C4.30325 0.959516 1.91086 1.95102 1.27758 4.74001C0.586725 7.75289 2.48017 10.35 4.1945 11.9939C4.72289 12.5078 5.43087 12.7953 6.16791 12.7953C6.90495 12.7953 7.61293 12.5078 8.14131 11.9939C9.84925 10.35 11.7427 7.75289 11.0646 4.74001C10.425 1.95102 8.02617 0.959516 6.16471 0.959516Z" fill="white"></path></svg>