<svg xmlns="http://www.w3.org/2000/svg" width="38" height="38" viewBox="0 0 38 38" fill="none"><path d="M25.3333 22.1667C25.3333 23.4784 26.3966 24.5417 27.7083 24.5417C29.02 24.5417 30.0833 23.4784 30.0833 22.1667C30.0833 20.8551 29.02 19.7917 27.7083 19.7917C26.3966 19.7917 25.3333 20.8551 25.3333 22.1667Z" stroke="#262626" stroke-width="1.5"></path><path d="M15.8333 11.0833H25.3333C29.8117 11.0833 32.0508 11.0833 33.4421 12.4746C34.8333 13.8658 34.8333 16.105 34.8333 20.5833V23.75C34.8333 28.2283 34.8333 30.4675 33.4421 31.8588C32.0508 33.25 29.8117 33.25 25.3333 33.25H15.8333C9.8622 33.25 6.87664 33.25 5.02165 31.395C3.16666 29.54 3.16666 26.5545 3.16666 20.5833V17.4167C3.16666 11.4455 3.16666 8.45998 5.02165 6.60499C6.87664 4.75 9.8622 4.75 15.8333 4.75H22.1667C23.6391 4.75 24.3753 4.75 24.9794 4.91185C26.6186 5.35107 27.8989 6.63142 28.3381 8.27061C28.5 8.87465 28.5 9.61088 28.5 11.0833" stroke="#262626" stroke-width="1.5" stroke-linecap="round"></path></svg>