<svg xmlns="http://www.w3.org/2000/svg" width="40" height="40" viewBox="0 0 40 40" fill="none"><circle cx="28.3333" cy="30.0001" r="3.33333" stroke="#262626" stroke-width="1.5"></circle><circle cx="11.6666" cy="30.0001" r="3.33333" stroke="#262626" stroke-width="1.5"></circle><path d="M4.5537 28.7797C5.36515 29.5911 6.50544 29.8631 8.33331 29.9542M15 30.0001H25M31.6667 29.9542C33.4945 29.8631 34.6348 29.5911 35.4463 28.7797C36.6666 27.5593 36.6666 25.5951 36.6666 21.6667V18.3334H28.8333C27.5925 18.3334 26.972 18.3334 26.4699 18.1703C25.4551 17.8405 24.6595 17.0449 24.3298 16.0301C24.1666 15.528 24.1666 14.9076 24.1666 13.6667C24.1666 11.8055 24.1666 10.8748 23.9219 10.1217C23.4273 8.59947 22.2339 7.40605 20.7117 6.91147C19.9586 6.66675 19.0279 6.66675 17.1666 6.66675H3.33331" stroke="#262626" stroke-width="1.5" stroke-linecap="round" stroke-linejoin="round"></path><path d="M3.33331 13.3335L13.3333 13.3335" stroke="#262626" stroke-width="1.5" stroke-linecap="round" stroke-linejoin="round"></path><path d="M3.33331 18.3335H9.99998" stroke="#262626" stroke-width="1.5" stroke-linecap="round" stroke-linejoin="round"></path><path d="M24.1666 10H27.202C29.6276 10 30.8404 10 31.8273 10.5895C32.8143 11.179 33.3893 12.2469 34.5393 14.3825L36.6666 18.3333" stroke="#262626" stroke-width="1.5" stroke-linecap="round" stroke-linejoin="round"></path></svg>