<svg xmlns="http://www.w3.org/2000/svg" width="17" height="16" viewBox="0 0 17 16" fill="none"><path fill-rule="evenodd" clip-rule="evenodd" d="M11.7929 2C12.6869 2 13.5469 2.35333 14.1796 2.98733C14.8129 3.62 15.1669 4.47333 15.1669 5.36667V10.6333C15.1669 12.4933 13.6536 14 11.7929 14H5.20692C3.34625 14 1.83359 12.4933 1.83359 10.6333V5.36667C1.83359 3.50667 3.33959 2 5.20692 2H11.7929ZM12.8536 6.36L12.9069 6.30667C13.0663 6.11333 13.0663 5.83333 12.8996 5.64C12.8069 5.54067 12.6796 5.48 12.5469 5.46667C12.4069 5.45933 12.2736 5.50667 12.1729 5.6L9.16692 8C8.78025 8.32067 8.22625 8.32067 7.83359 8L4.83359 5.6C4.62625 5.44667 4.33959 5.46667 4.16692 5.64667C3.98692 5.82667 3.96692 6.11333 4.11959 6.31333L4.20692 6.4L7.24025 8.76667C7.61359 9.06 8.06625 9.22 8.54025 9.22C9.01292 9.22 9.47359 9.06 9.84625 8.76667L12.8536 6.36Z" fill="#262626"></path></svg>